<svg width="8" height="11" viewBox="0 0 8 11" fill="none" xmlns="http://www.w3.org/2000/svg">
<rect width="8" height="11" fill="#F2F2F2"/>
<g clip-path="url(#clip0_0_312)">
<rect width="320" height="597" transform="translate(-24 -353)" fill="white"/>
<rect x="-24" y="-265" width="320" height="509" fill="#F8F8F8"/>
<path fill-rule="evenodd" clip-rule="evenodd" d="M6.50008 0.500076L4.00008 3.00008L1.50008 0.500076C1.22393 0.223933 0.776218 0.223933 0.500076 0.500076C0.223933 0.776218 0.223933 1.22393 0.500075 1.50008L3.29297 4.29297C3.68349 4.68349 4.31666 4.68349 4.70718 4.29297L7.50008 1.50008C7.77622 1.22393 7.77622 0.776218 7.50008 0.500076C7.22393 0.223933 6.77622 0.223933 6.50008 0.500076ZM6.50008 6.50008L4.00008 9.00008L1.50008 6.50008C1.22393 6.22393 0.776218 6.22393 0.500076 6.50008C0.223933 6.77622 0.223933 7.22393 0.500075 7.50008L3.29297 10.293C3.68349 10.6835 4.31666 10.6835 4.70718 10.293L7.50008 7.50008C7.77622 7.22393 7.77622 6.77622 7.50008 6.50008C7.22393 6.22393 6.77622 6.22393 6.50008 6.50008Z" fill="#41F6D7"/>
</g>
<defs>
<clipPath id="clip0_0_312">
<rect width="320" height="597" fill="white" transform="translate(-24 -353)"/>
</clipPath>
</defs>
</svg>
